<?xml version="1.0" encoding="utf-8" standalone="no"?>
<!DOCTYPE svg PUBLIC "-//W3C//DTD SVG 1.1//EN"
  "http://www.w3.org/Graphics/SVG/1.1/DTD/svg11.dtd">
<!-- Created with matplotlib (http://matplotlib.org/) -->
<svg height="662pt" version="1.1" viewBox="0 0 1152 662" width="1152pt" xmlns="http://www.w3.org/2000/svg" xmlns:xlink="http://www.w3.org/1999/xlink">
 <defs>
  <style type="text/css">
*{stroke-linecap:butt;stroke-linejoin:round;stroke-miterlimit:100000;}
  </style>
 </defs>
 <g id="figure_1">
  <g id="patch_1">
   <path d="M 0 662.4 
L 1152 662.4 
L 1152 0 
L 0 0 
z
" style="fill:#ffffff;"/>
  </g>
  <g id="axes_1">
   <g id="patch_2">
    <path d="M 144 596.16 
L 1036.8 596.16 
L 1036.8 66.24 
L 144 66.24 
z
" style="fill:#ffffff;"/>
   </g>
   <g id="PathCollection_1">
    <defs>
     <path d="M 0 3.535534 
C 0.937635 3.535534 1.836992 3.163008 2.5 2.5 
C 3.163008 1.836992 3.535534 0.937635 3.535534 0 
C 3.535534 -0.937635 3.163008 -1.836992 2.5 -2.5 
C 1.836992 -3.163008 0.937635 -3.535534 0 -3.535534 
C -0.937635 -3.535534 -1.836992 -3.163008 -2.5 -2.5 
C -3.163008 -1.836992 -3.535534 -0.937635 -3.535534 0 
C -3.535534 0.937635 -3.163008 1.836992 -2.5 2.5 
C -1.836992 3.163008 -0.937635 3.535534 0 3.535534 
z
" id="m39ca3a0a03" style="stroke:#ff0000;"/>
    </defs>
    <g clip-path="url(#p5a6436449b)">
     <use style="fill:#ff0000;stroke:#ff0000;" x="534.31959799" xlink:href="#m39ca3a0a03" y="331.2"/>
    </g>
   </g>
   <g id="PathCollection_2">
    <g clip-path="url(#p5a6436449b)">
     <use style="fill:#ff0000;stroke:#ff0000;" x="790.046231156" xlink:href="#m39ca3a0a03" y="92.736"/>
    </g>
   </g>
   <g id="line2d_1">
    <path clip-path="url(#p5a6436449b)" d="M 144 596.16 
L 166.432161 596.080937 
L 179.891457 595.83 
L 193.350754 595.301231 
L 202.323618 594.745376 
L 211.296482 593.993539 
L 220.269347 593.018031 
L 229.242211 591.792036 
L 238.215075 590.28971 
L 247.18794 588.486304 
L 256.160804 586.358281 
L 265.133668 583.883452 
L 274.106533 581.041115 
L 283.079397 577.812192 
L 292.052261 574.179373 
L 301.025126 570.127257 
L 309.99799 565.642496 
L 318.970854 560.713924 
L 327.943719 555.332687 
L 336.916583 549.492363 
L 345.889447 543.189069 
L 354.862312 536.42155 
L 363.835176 529.191262 
L 372.80804 521.502427 
L 381.780905 513.362074 
L 390.753769 504.780056 
L 399.726633 495.769047 
L 408.699497 486.344509 
L 417.672362 476.524638 
L 426.645226 466.330287 
L 435.61809 455.784852 
L 444.590955 444.914146 
L 453.563819 433.746236 
L 462.536683 422.311261 
L 475.99598 404.728523 
L 489.455276 386.731959 
L 507.401005 362.302672 
L 552.265327 300.916013 
L 565.724623 282.926211 
L 579.18392 265.344467 
L 588.156784 253.903481 
L 597.129648 242.721311 
L 606.102513 231.825266 
L 615.075377 221.240308 
L 624.048241 210.988905 
L 633.021106 201.090911 
L 641.99397 191.563473 
L 650.966834 182.420979 
L 659.939698 173.675025 
L 668.912563 165.334426 
L 677.885427 157.405249 
L 686.858291 149.890877 
L 695.831156 142.792102 
L 704.80402 136.10724 
L 713.776884 129.832272 
L 722.749749 123.961002 
L 731.722613 118.485231 
L 740.695477 113.394947 
L 749.668342 108.678522 
L 758.641206 104.322916 
L 767.61407 100.313891 
L 776.586935 96.636214 
L 785.559799 93.273864 
L 794.532663 90.210236 
L 803.505528 87.428329 
L 812.478392 84.910935 
L 821.451256 82.640801 
L 830.424121 80.600792 
L 839.396985 78.774033 
L 848.369849 77.144031 
L 857.342714 75.69479 
L 866.315578 74.410901 
L 879.774874 72.763056 
L 893.234171 71.407627 
L 906.693467 70.301989 
L 920.152764 69.407685 
L 938.098492 68.485429 
L 956.044221 67.808625 
L 978.476382 67.221057 
L 1005.394975 66.781302 
L 1032.313568 66.528326 
L 1032.313568 66.528326 
" style="fill:none;stroke:#0000ff;stroke-linecap:square;"/>
    <defs>
     <path d="M 0 1.5 
C 0.397805 1.5 0.77937 1.341951 1.06066 1.06066 
C 1.341951 0.77937 1.5 0.397805 1.5 0 
C 1.5 -0.397805 1.341951 -0.77937 1.06066 -1.06066 
C 0.77937 -1.341951 0.397805 -1.5 0 -1.5 
C -0.397805 -1.5 -0.77937 -1.341951 -1.06066 -1.06066 
C -1.341951 -0.77937 -1.5 -0.397805 -1.5 0 
C -1.5 0.397805 -1.341951 0.77937 -1.06066 1.06066 
C -0.77937 1.341951 -0.397805 1.5 0 1.5 
z
" id="m36a8c105a3" style="stroke:#0000ff;stroke-width:0.5;"/>
    </defs>
    <g clip-path="url(#p5a6436449b)">
     <use style="fill:#0000ff;stroke:#0000ff;stroke-width:0.5;" x="144.0" xlink:href="#m36a8c105a3" y="596.16"/>
     <use style="fill:#0000ff;stroke:#0000ff;stroke-width:0.5;" x="148.486432161" xlink:href="#m36a8c105a3" y="596.16"/>
     <use style="fill:#0000ff;stroke:#0000ff;stroke-width:0.5;" x="152.972864322" xlink:href="#m36a8c105a3" y="596.156022368"/>
     <use style="fill:#0000ff;stroke:#0000ff;stroke-width:0.5;" x="157.459296482" xlink:href="#m36a8c105a3" y="596.144122166"/>
     <use style="fill:#0000ff;stroke:#0000ff;stroke-width:0.5;" x="161.945728643" xlink:href="#m36a8c105a3" y="596.120386967"/>
     <use style="fill:#0000ff;stroke:#0000ff;stroke-width:0.5;" x="166.432160804" xlink:href="#m36a8c105a3" y="596.08093698"/>
     <use style="fill:#0000ff;stroke:#0000ff;stroke-width:0.5;" x="170.918592965" xlink:href="#m36a8c105a3" y="596.021925456"/>
     <use style="fill:#0000ff;stroke:#0000ff;stroke-width:0.5;" x="175.405025126" xlink:href="#m36a8c105a3" y="595.939539378"/>
     <use style="fill:#0000ff;stroke:#0000ff;stroke-width:0.5;" x="179.891457286" xlink:href="#m36a8c105a3" y="595.830000428"/>
     <use style="fill:#0000ff;stroke:#0000ff;stroke-width:0.5;" x="184.377889447" xlink:href="#m36a8c105a3" y="595.689566216"/>
     <use style="fill:#0000ff;stroke:#0000ff;stroke-width:0.5;" x="188.864321608" xlink:href="#m36a8c105a3" y="595.514531762"/>
     <use style="fill:#0000ff;stroke:#0000ff;stroke-width:0.5;" x="193.350753769" xlink:href="#m36a8c105a3" y="595.301231234"/>
     <use style="fill:#0000ff;stroke:#0000ff;stroke-width:0.5;" x="197.83718593" xlink:href="#m36a8c105a3" y="595.04603992"/>
     <use style="fill:#0000ff;stroke:#0000ff;stroke-width:0.5;" x="202.32361809" xlink:href="#m36a8c105a3" y="594.745376432"/>
     <use style="fill:#0000ff;stroke:#0000ff;stroke-width:0.5;" x="206.810050251" xlink:href="#m36a8c105a3" y="594.39570513"/>
     <use style="fill:#0000ff;stroke:#0000ff;stroke-width:0.5;" x="211.296482412" xlink:href="#m36a8c105a3" y="593.993538763"/>
     <use style="fill:#0000ff;stroke:#0000ff;stroke-width:0.5;" x="215.782914573" xlink:href="#m36a8c105a3" y="593.535441311"/>
     <use style="fill:#0000ff;stroke:#0000ff;stroke-width:0.5;" x="220.269346734" xlink:href="#m36a8c105a3" y="593.018031016"/>
     <use style="fill:#0000ff;stroke:#0000ff;stroke-width:0.5;" x="224.755778894" xlink:href="#m36a8c105a3" y="592.437983601"/>
     <use style="fill:#0000ff;stroke:#0000ff;stroke-width:0.5;" x="229.242211055" xlink:href="#m36a8c105a3" y="591.79203566"/>
     <use style="fill:#0000ff;stroke:#0000ff;stroke-width:0.5;" x="233.728643216" xlink:href="#m36a8c105a3" y="591.076988207"/>
     <use style="fill:#0000ff;stroke:#0000ff;stroke-width:0.5;" x="238.215075377" xlink:href="#m36a8c105a3" y="590.289710378"/>
     <use style="fill:#0000ff;stroke:#0000ff;stroke-width:0.5;" x="242.701507538" xlink:href="#m36a8c105a3" y="589.427143267"/>
     <use style="fill:#0000ff;stroke:#0000ff;stroke-width:0.5;" x="247.187939698" xlink:href="#m36a8c105a3" y="588.486303892"/>
     <use style="fill:#0000ff;stroke:#0000ff;stroke-width:0.5;" x="251.674371859" xlink:href="#m36a8c105a3" y="587.464289265"/>
     <use style="fill:#0000ff;stroke:#0000ff;stroke-width:0.5;" x="256.16080402" xlink:href="#m36a8c105a3" y="586.358280575"/>
     <use style="fill:#0000ff;stroke:#0000ff;stroke-width:0.5;" x="260.647236181" xlink:href="#m36a8c105a3" y="585.165547443"/>
     <use style="fill:#0000ff;stroke:#0000ff;stroke-width:0.5;" x="265.133668342" xlink:href="#m36a8c105a3" y="583.883452255"/>
     <use style="fill:#0000ff;stroke:#0000ff;stroke-width:0.5;" x="269.620100503" xlink:href="#m36a8c105a3" y="582.509454551"/>
     <use style="fill:#0000ff;stroke:#0000ff;stroke-width:0.5;" x="274.106532663" xlink:href="#m36a8c105a3" y="581.041115456"/>
     <use style="fill:#0000ff;stroke:#0000ff;stroke-width:0.5;" x="278.592964824" xlink:href="#m36a8c105a3" y="579.476102135"/>
     <use style="fill:#0000ff;stroke:#0000ff;stroke-width:0.5;" x="283.079396985" xlink:href="#m36a8c105a3" y="577.812192261"/>
     <use style="fill:#0000ff;stroke:#0000ff;stroke-width:0.5;" x="287.565829146" xlink:href="#m36a8c105a3" y="576.047278474"/>
     <use style="fill:#0000ff;stroke:#0000ff;stroke-width:0.5;" x="292.052261307" xlink:href="#m36a8c105a3" y="574.179372818"/>
     <use style="fill:#0000ff;stroke:#0000ff;stroke-width:0.5;" x="296.538693467" xlink:href="#m36a8c105a3" y="572.206611144"/>
     <use style="fill:#0000ff;stroke:#0000ff;stroke-width:0.5;" x="301.025125628" xlink:href="#m36a8c105a3" y="570.127257446"/>
     <use style="fill:#0000ff;stroke:#0000ff;stroke-width:0.5;" x="305.511557789" xlink:href="#m36a8c105a3" y="567.939708131"/>
     <use style="fill:#0000ff;stroke:#0000ff;stroke-width:0.5;" x="309.99798995" xlink:href="#m36a8c105a3" y="565.642496197"/>
     <use style="fill:#0000ff;stroke:#0000ff;stroke-width:0.5;" x="314.484422111" xlink:href="#m36a8c105a3" y="563.234295294"/>
     <use style="fill:#0000ff;stroke:#0000ff;stroke-width:0.5;" x="318.970854271" xlink:href="#m36a8c105a3" y="560.713923668"/>
     <use style="fill:#0000ff;stroke:#0000ff;stroke-width:0.5;" x="323.457286432" xlink:href="#m36a8c105a3" y="558.080347954"/>
     <use style="fill:#0000ff;stroke:#0000ff;stroke-width:0.5;" x="327.943718593" xlink:href="#m36a8c105a3" y="555.332686803"/>
     <use style="fill:#0000ff;stroke:#0000ff;stroke-width:0.5;" x="332.430150754" xlink:href="#m36a8c105a3" y="552.470214338"/>
     <use style="fill:#0000ff;stroke:#0000ff;stroke-width:0.5;" x="336.916582915" xlink:href="#m36a8c105a3" y="549.492363403"/>
     <use style="fill:#0000ff;stroke:#0000ff;stroke-width:0.5;" x="341.403015075" xlink:href="#m36a8c105a3" y="546.398728599"/>
     <use style="fill:#0000ff;stroke:#0000ff;stroke-width:0.5;" x="345.889447236" xlink:href="#m36a8c105a3" y="543.18906909"/>
     <use style="fill:#0000ff;stroke:#0000ff;stroke-width:0.5;" x="350.375879397" xlink:href="#m36a8c105a3" y="539.863311154"/>
     <use style="fill:#0000ff;stroke:#0000ff;stroke-width:0.5;" x="354.862311558" xlink:href="#m36a8c105a3" y="536.421550476"/>
     <use style="fill:#0000ff;stroke:#0000ff;stroke-width:0.5;" x="359.348743719" xlink:href="#m36a8c105a3" y="532.864054151"/>
     <use style="fill:#0000ff;stroke:#0000ff;stroke-width:0.5;" x="363.835175879" xlink:href="#m36a8c105a3" y="529.191262396"/>
     <use style="fill:#0000ff;stroke:#0000ff;stroke-width:0.5;" x="368.32160804" xlink:href="#m36a8c105a3" y="525.403789949"/>
     <use style="fill:#0000ff;stroke:#0000ff;stroke-width:0.5;" x="372.808040201" xlink:href="#m36a8c105a3" y="521.502427142"/>
     <use style="fill:#0000ff;stroke:#0000ff;stroke-width:0.5;" x="377.294472362" xlink:href="#m36a8c105a3" y="517.488140639"/>
     <use style="fill:#0000ff;stroke:#0000ff;stroke-width:0.5;" x="381.780904523" xlink:href="#m36a8c105a3" y="513.362073818"/>
     <use style="fill:#0000ff;stroke:#0000ff;stroke-width:0.5;" x="386.267336683" xlink:href="#m36a8c105a3" y="509.125546798"/>
     <use style="fill:#0000ff;stroke:#0000ff;stroke-width:0.5;" x="390.753768844" xlink:href="#m36a8c105a3" y="504.780056089"/>
     <use style="fill:#0000ff;stroke:#0000ff;stroke-width:0.5;" x="395.240201005" xlink:href="#m36a8c105a3" y="500.327273864"/>
     <use style="fill:#0000ff;stroke:#0000ff;stroke-width:0.5;" x="399.726633166" xlink:href="#m36a8c105a3" y="495.769046839"/>
     <use style="fill:#0000ff;stroke:#0000ff;stroke-width:0.5;" x="404.213065327" xlink:href="#m36a8c105a3" y="491.107394765"/>
     <use style="fill:#0000ff;stroke:#0000ff;stroke-width:0.5;" x="408.699497487" xlink:href="#m36a8c105a3" y="486.344508507"/>
     <use style="fill:#0000ff;stroke:#0000ff;stroke-width:0.5;" x="413.185929648" xlink:href="#m36a8c105a3" y="481.482747729"/>
     <use style="fill:#0000ff;stroke:#0000ff;stroke-width:0.5;" x="417.672361809" xlink:href="#m36a8c105a3" y="476.524638163"/>
     <use style="fill:#0000ff;stroke:#0000ff;stroke-width:0.5;" x="422.15879397" xlink:href="#m36a8c105a3" y="471.472868477"/>
     <use style="fill:#0000ff;stroke:#0000ff;stroke-width:0.5;" x="426.645226131" xlink:href="#m36a8c105a3" y="466.330286721"/>
     <use style="fill:#0000ff;stroke:#0000ff;stroke-width:0.5;" x="431.131658291" xlink:href="#m36a8c105a3" y="461.099896381"/>
     <use style="fill:#0000ff;stroke:#0000ff;stroke-width:0.5;" x="435.618090452" xlink:href="#m36a8c105a3" y="455.784852016"/>
     <use style="fill:#0000ff;stroke:#0000ff;stroke-width:0.5;" x="440.104522613" xlink:href="#m36a8c105a3" y="450.388454501"/>
     <use style="fill:#0000ff;stroke:#0000ff;stroke-width:0.5;" x="444.590954774" xlink:href="#m36a8c105a3" y="444.914145876"/>
     <use style="fill:#0000ff;stroke:#0000ff;stroke-width:0.5;" x="449.077386935" xlink:href="#m36a8c105a3" y="439.365503809"/>
     <use style="fill:#0000ff;stroke:#0000ff;stroke-width:0.5;" x="453.563819095" xlink:href="#m36a8c105a3" y="433.746235686"/>
     <use style="fill:#0000ff;stroke:#0000ff;stroke-width:0.5;" x="458.050251256" xlink:href="#m36a8c105a3" y="428.060172326"/>
     <use style="fill:#0000ff;stroke:#0000ff;stroke-width:0.5;" x="462.536683417" xlink:href="#m36a8c105a3" y="422.311261358"/>
     <use style="fill:#0000ff;stroke:#0000ff;stroke-width:0.5;" x="467.023115578" xlink:href="#m36a8c105a3" y="416.503560249"/>
     <use style="fill:#0000ff;stroke:#0000ff;stroke-width:0.5;" x="471.509547739" xlink:href="#m36a8c105a3" y="410.641229014"/>
     <use style="fill:#0000ff;stroke:#0000ff;stroke-width:0.5;" x="475.995979899" xlink:href="#m36a8c105a3" y="404.728522618"/>
     <use style="fill:#0000ff;stroke:#0000ff;stroke-width:0.5;" x="480.48241206" xlink:href="#m36a8c105a3" y="398.769783095"/>
     <use style="fill:#0000ff;stroke:#0000ff;stroke-width:0.5;" x="484.968844221" xlink:href="#m36a8c105a3" y="392.769431396"/>
     <use style="fill:#0000ff;stroke:#0000ff;stroke-width:0.5;" x="489.455276382" xlink:href="#m36a8c105a3" y="386.731958994"/>
     <use style="fill:#0000ff;stroke:#0000ff;stroke-width:0.5;" x="493.941708543" xlink:href="#m36a8c105a3" y="380.661919262"/>
     <use style="fill:#0000ff;stroke:#0000ff;stroke-width:0.5;" x="498.428140704" xlink:href="#m36a8c105a3" y="374.563918662"/>
     <use style="fill:#0000ff;stroke:#0000ff;stroke-width:0.5;" x="502.914572864" xlink:href="#m36a8c105a3" y="368.442607742"/>
     <use style="fill:#0000ff;stroke:#0000ff;stroke-width:0.5;" x="507.401005025" xlink:href="#m36a8c105a3" y="362.302672001"/>
     <use style="fill:#0000ff;stroke:#0000ff;stroke-width:0.5;" x="511.887437186" xlink:href="#m36a8c105a3" y="356.148822621"/>
     <use style="fill:#0000ff;stroke:#0000ff;stroke-width:0.5;" x="516.373869347" xlink:href="#m36a8c105a3" y="349.985787111"/>
     <use style="fill:#0000ff;stroke:#0000ff;stroke-width:0.5;" x="520.860301508" xlink:href="#m36a8c105a3" y="343.818299876"/>
     <use style="fill:#0000ff;stroke:#0000ff;stroke-width:0.5;" x="525.346733668" xlink:href="#m36a8c105a3" y="337.651092756"/>
     <use style="fill:#0000ff;stroke:#0000ff;stroke-width:0.5;" x="529.833165829" xlink:href="#m36a8c105a3" y="331.488885553"/>
     <use style="fill:#0000ff;stroke:#0000ff;stroke-width:0.5;" x="534.31959799" xlink:href="#m36a8c105a3" y="325.336376578"/>
     <use style="fill:#0000ff;stroke:#0000ff;stroke-width:0.5;" x="538.806030151" xlink:href="#m36a8c105a3" y="319.198233244"/>
     <use style="fill:#0000ff;stroke:#0000ff;stroke-width:0.5;" x="543.292462312" xlink:href="#m36a8c105a3" y="313.079082751"/>
     <use style="fill:#0000ff;stroke:#0000ff;stroke-width:0.5;" x="547.778894472" xlink:href="#m36a8c105a3" y="306.983502864"/>
     <use style="fill:#0000ff;stroke:#0000ff;stroke-width:0.5;" x="552.265326633" xlink:href="#m36a8c105a3" y="300.916012844"/>
     <use style="fill:#0000ff;stroke:#0000ff;stroke-width:0.5;" x="556.751758794" xlink:href="#m36a8c105a3" y="294.881064538"/>
     <use style="fill:#0000ff;stroke:#0000ff;stroke-width:0.5;" x="561.238190955" xlink:href="#m36a8c105a3" y="288.883033667"/>
     <use style="fill:#0000ff;stroke:#0000ff;stroke-width:0.5;" x="565.724623116" xlink:href="#m36a8c105a3" y="282.926211345"/>
     <use style="fill:#0000ff;stroke:#0000ff;stroke-width:0.5;" x="570.211055276" xlink:href="#m36a8c105a3" y="277.014795835"/>
     <use style="fill:#0000ff;stroke:#0000ff;stroke-width:0.5;" x="574.697487437" xlink:href="#m36a8c105a3" y="271.1528846"/>
     <use style="fill:#0000ff;stroke:#0000ff;stroke-width:0.5;" x="579.183919598" xlink:href="#m36a8c105a3" y="265.344466644"/>
     <use style="fill:#0000ff;stroke:#0000ff;stroke-width:0.5;" x="583.670351759" xlink:href="#m36a8c105a3" y="259.593415188"/>
     <use style="fill:#0000ff;stroke:#0000ff;stroke-width:0.5;" x="588.15678392" xlink:href="#m36a8c105a3" y="253.903480692"/>
     <use style="fill:#0000ff;stroke:#0000ff;stroke-width:0.5;" x="592.64321608" xlink:href="#m36a8c105a3" y="248.278284249"/>
     <use style="fill:#0000ff;stroke:#0000ff;stroke-width:0.5;" x="597.129648241" xlink:href="#m36a8c105a3" y="242.721311379"/>
     <use style="fill:#0000ff;stroke:#0000ff;stroke-width:0.5;" x="601.616080402" xlink:href="#m36a8c105a3" y="237.235906221"/>
     <use style="fill:#0000ff;stroke:#0000ff;stroke-width:0.5;" x="606.102512563" xlink:href="#m36a8c105a3" y="231.825266162"/>
     <use style="fill:#0000ff;stroke:#0000ff;stroke-width:0.5;" x="610.588944724" xlink:href="#m36a8c105a3" y="226.49243691"/>
     <use style="fill:#0000ff;stroke:#0000ff;stroke-width:0.5;" x="615.075376884" xlink:href="#m36a8c105a3" y="221.240308014"/>
     <use style="fill:#0000ff;stroke:#0000ff;stroke-width:0.5;" x="619.561809045" xlink:href="#m36a8c105a3" y="216.071608863"/>
     <use style="fill:#0000ff;stroke:#0000ff;stroke-width:0.5;" x="624.048241206" xlink:href="#m36a8c105a3" y="210.988905156"/>
     <use style="fill:#0000ff;stroke:#0000ff;stroke-width:0.5;" x="628.534673367" xlink:href="#m36a8c105a3" y="205.994595861"/>
     <use style="fill:#0000ff;stroke:#0000ff;stroke-width:0.5;" x="633.021105528" xlink:href="#m36a8c105a3" y="201.090910663"/>
     <use style="fill:#0000ff;stroke:#0000ff;stroke-width:0.5;" x="637.507537688" xlink:href="#m36a8c105a3" y="196.279907912"/>
     <use style="fill:#0000ff;stroke:#0000ff;stroke-width:0.5;" x="641.993969849" xlink:href="#m36a8c105a3" y="191.56347306"/>
     <use style="fill:#0000ff;stroke:#0000ff;stroke-width:0.5;" x="646.48040201" xlink:href="#m36a8c105a3" y="186.943317603"/>
     <use style="fill:#0000ff;stroke:#0000ff;stroke-width:0.5;" x="650.966834171" xlink:href="#m36a8c105a3" y="182.42097851"/>
     <use style="fill:#0000ff;stroke:#0000ff;stroke-width:0.5;" x="655.453266332" xlink:href="#m36a8c105a3" y="177.997818149"/>
     <use style="fill:#0000ff;stroke:#0000ff;stroke-width:0.5;" x="659.939698492" xlink:href="#m36a8c105a3" y="173.675024694"/>
     <use style="fill:#0000ff;stroke:#0000ff;stroke-width:0.5;" x="664.426130653" xlink:href="#m36a8c105a3" y="169.453613006"/>
     <use style="fill:#0000ff;stroke:#0000ff;stroke-width:0.5;" x="668.912562814" xlink:href="#m36a8c105a3" y="165.334425981"/>
     <use style="fill:#0000ff;stroke:#0000ff;stroke-width:0.5;" x="673.398994975" xlink:href="#m36a8c105a3" y="161.318136355"/>
     <use style="fill:#0000ff;stroke:#0000ff;stroke-width:0.5;" x="677.885427136" xlink:href="#m36a8c105a3" y="157.405248947"/>
     <use style="fill:#0000ff;stroke:#0000ff;stroke-width:0.5;" x="682.371859296" xlink:href="#m36a8c105a3" y="153.596103328"/>
     <use style="fill:#0000ff;stroke:#0000ff;stroke-width:0.5;" x="686.858291457" xlink:href="#m36a8c105a3" y="149.890876898"/>
     <use style="fill:#0000ff;stroke:#0000ff;stroke-width:0.5;" x="691.344723618" xlink:href="#m36a8c105a3" y="146.289588358"/>
     <use style="fill:#0000ff;stroke:#0000ff;stroke-width:0.5;" x="695.831155779" xlink:href="#m36a8c105a3" y="142.792101548"/>
     <use style="fill:#0000ff;stroke:#0000ff;stroke-width:0.5;" x="700.31758794" xlink:href="#m36a8c105a3" y="139.398129637"/>
     <use style="fill:#0000ff;stroke:#0000ff;stroke-width:0.5;" x="704.804020101" xlink:href="#m36a8c105a3" y="136.10723965"/>
     <use style="fill:#0000ff;stroke:#0000ff;stroke-width:0.5;" x="709.290452261" xlink:href="#m36a8c105a3" y="132.918857286"/>
     <use style="fill:#0000ff;stroke:#0000ff;stroke-width:0.5;" x="713.776884422" xlink:href="#m36a8c105a3" y="129.832272036"/>
     <use style="fill:#0000ff;stroke:#0000ff;stroke-width:0.5;" x="718.263316583" xlink:href="#m36a8c105a3" y="126.846642543"/>
     <use style="fill:#0000ff;stroke:#0000ff;stroke-width:0.5;" x="722.749748744" xlink:href="#m36a8c105a3" y="123.961002211"/>
     <use style="fill:#0000ff;stroke:#0000ff;stroke-width:0.5;" x="727.236180905" xlink:href="#m36a8c105a3" y="121.174265007"/>
     <use style="fill:#0000ff;stroke:#0000ff;stroke-width:0.5;" x="731.722613065" xlink:href="#m36a8c105a3" y="118.485231459"/>
     <use style="fill:#0000ff;stroke:#0000ff;stroke-width:0.5;" x="736.209045226" xlink:href="#m36a8c105a3" y="115.8925948"/>
     <use style="fill:#0000ff;stroke:#0000ff;stroke-width:0.5;" x="740.695477387" xlink:href="#m36a8c105a3" y="113.394947248"/>
     <use style="fill:#0000ff;stroke:#0000ff;stroke-width:0.5;" x="745.181909548" xlink:href="#m36a8c105a3" y="110.990786389"/>
     <use style="fill:#0000ff;stroke:#0000ff;stroke-width:0.5;" x="749.668341709" xlink:href="#m36a8c105a3" y="108.678521637"/>
     <use style="fill:#0000ff;stroke:#0000ff;stroke-width:0.5;" x="754.154773869" xlink:href="#m36a8c105a3" y="106.456480753"/>
     <use style="fill:#0000ff;stroke:#0000ff;stroke-width:0.5;" x="758.64120603" xlink:href="#m36a8c105a3" y="104.322916383"/>
     <use style="fill:#0000ff;stroke:#0000ff;stroke-width:0.5;" x="763.127638191" xlink:href="#m36a8c105a3" y="102.27601261"/>
     <use style="fill:#0000ff;stroke:#0000ff;stroke-width:0.5;" x="767.614070352" xlink:href="#m36a8c105a3" y="100.313891476"/>
     <use style="fill:#0000ff;stroke:#0000ff;stroke-width:0.5;" x="772.100502513" xlink:href="#m36a8c105a3" y="98.4346194717"/>
     <use style="fill:#0000ff;stroke:#0000ff;stroke-width:0.5;" x="776.586934673" xlink:href="#m36a8c105a3" y="96.6362139534"/>
     <use style="fill:#0000ff;stroke:#0000ff;stroke-width:0.5;" x="781.073366834" xlink:href="#m36a8c105a3" y="94.9166494758"/>
     <use style="fill:#0000ff;stroke:#0000ff;stroke-width:0.5;" x="785.559798995" xlink:href="#m36a8c105a3" y="93.2738640199"/>
     <use style="fill:#0000ff;stroke:#0000ff;stroke-width:0.5;" x="790.046231156" xlink:href="#m36a8c105a3" y="91.7057650937"/>
     <use style="fill:#0000ff;stroke:#0000ff;stroke-width:0.5;" x="794.532663317" xlink:href="#m36a8c105a3" y="90.2102356909"/>
     <use style="fill:#0000ff;stroke:#0000ff;stroke-width:0.5;" x="799.019095477" xlink:href="#m36a8c105a3" y="88.7851400884"/>
     <use style="fill:#0000ff;stroke:#0000ff;stroke-width:0.5;" x="803.505527638" xlink:href="#m36a8c105a3" y="87.4283294699"/>
     <use style="fill:#0000ff;stroke:#0000ff;stroke-width:0.5;" x="807.991959799" xlink:href="#m36a8c105a3" y="86.1376473587"/>
     <use style="fill:#0000ff;stroke:#0000ff;stroke-width:0.5;" x="812.47839196" xlink:href="#m36a8c105a3" y="84.9109348489"/>
     <use style="fill:#0000ff;stroke:#0000ff;stroke-width:0.5;" x="816.964824121" xlink:href="#m36a8c105a3" y="83.7460356233"/>
     <use style="fill:#0000ff;stroke:#0000ff;stroke-width:0.5;" x="821.451256281" xlink:href="#m36a8c105a3" y="82.6408007474"/>
     <use style="fill:#0000ff;stroke:#0000ff;stroke-width:0.5;" x="825.937688442" xlink:href="#m36a8c105a3" y="81.5930932308"/>
     <use style="fill:#0000ff;stroke:#0000ff;stroke-width:0.5;" x="830.424120603" xlink:href="#m36a8c105a3" y="80.6007923501"/>
     <use style="fill:#0000ff;stroke:#0000ff;stroke-width:0.5;" x="834.910552764" xlink:href="#m36a8c105a3" y="79.6617977256"/>
     <use style="fill:#0000ff;stroke:#0000ff;stroke-width:0.5;" x="839.396984925" xlink:href="#m36a8c105a3" y="78.7740331483"/>
     <use style="fill:#0000ff;stroke:#0000ff;stroke-width:0.5;" x="843.883417085" xlink:href="#m36a8c105a3" y="77.9354501536"/>
     <use style="fill:#0000ff;stroke:#0000ff;stroke-width:0.5;" x="848.369849246" xlink:href="#m36a8c105a3" y="77.1440313401"/>
     <use style="fill:#0000ff;stroke:#0000ff;stroke-width:0.5;" x="852.856281407" xlink:href="#m36a8c105a3" y="76.3977934322"/>
     <use style="fill:#0000ff;stroke:#0000ff;stroke-width:0.5;" x="857.342713568" xlink:href="#m36a8c105a3" y="75.6947900869"/>
     <use style="fill:#0000ff;stroke:#0000ff;stroke-width:0.5;" x="861.829145729" xlink:href="#m36a8c105a3" y="75.0331144473"/>
     <use style="fill:#0000ff;stroke:#0000ff;stroke-width:0.5;" x="866.315577889" xlink:href="#m36a8c105a3" y="74.410901444"/>
     <use style="fill:#0000ff;stroke:#0000ff;stroke-width:0.5;" x="870.80201005" xlink:href="#m36a8c105a3" y="73.8263298499"/>
     <use style="fill:#0000ff;stroke:#0000ff;stroke-width:0.5;" x="875.288442211" xlink:href="#m36a8c105a3" y="73.2776240907"/>
     <use style="fill:#0000ff;stroke:#0000ff;stroke-width:0.5;" x="879.774874372" xlink:href="#m36a8c105a3" y="72.7630558188"/>
     <use style="fill:#0000ff;stroke:#0000ff;stroke-width:0.5;" x="884.261306533" xlink:href="#m36a8c105a3" y="72.2809452557"/>
     <use style="fill:#0000ff;stroke:#0000ff;stroke-width:0.5;" x="888.747738693" xlink:href="#m36a8c105a3" y="71.8296623101"/>
     <use style="fill:#0000ff;stroke:#0000ff;stroke-width:0.5;" x="893.234170854" xlink:href="#m36a8c105a3" y="71.40762748"/>
     <use style="fill:#0000ff;stroke:#0000ff;stroke-width:0.5;" x="897.720603015" xlink:href="#m36a8c105a3" y="71.0133125458"/>
     <use style="fill:#0000ff;stroke:#0000ff;stroke-width:0.5;" x="902.207035176" xlink:href="#m36a8c105a3" y="70.6452410653"/>
     <use style="fill:#0000ff;stroke:#0000ff;stroke-width:0.5;" x="906.693467337" xlink:href="#m36a8c105a3" y="70.3019886776"/>
     <use style="fill:#0000ff;stroke:#0000ff;stroke-width:0.5;" x="911.179899497" xlink:href="#m36a8c105a3" y="69.9821832274"/>
     <use style="fill:#0000ff;stroke:#0000ff;stroke-width:0.5;" x="915.666331658" xlink:href="#m36a8c105a3" y="69.6845047186"/>
     <use style="fill:#0000ff;stroke:#0000ff;stroke-width:0.5;" x="920.152763819" xlink:href="#m36a8c105a3" y="69.407685108"/>
     <use style="fill:#0000ff;stroke:#0000ff;stroke-width:0.5;" x="924.63919598" xlink:href="#m36a8c105a3" y="69.1505079487"/>
     <use style="fill:#0000ff;stroke:#0000ff;stroke-width:0.5;" x="929.125628141" xlink:href="#m36a8c105a3" y="68.9118078945"/>
     <use style="fill:#0000ff;stroke:#0000ff;stroke-width:0.5;" x="933.612060302" xlink:href="#m36a8c105a3" y="68.6904700756"/>
     <use style="fill:#0000ff;stroke:#0000ff;stroke-width:0.5;" x="938.098492462" xlink:href="#m36a8c105a3" y="68.4854293552"/>
     <use style="fill:#0000ff;stroke:#0000ff;stroke-width:0.5;" x="942.584924623" xlink:href="#m36a8c105a3" y="68.2956694791"/>
     <use style="fill:#0000ff;stroke:#0000ff;stroke-width:0.5;" x="947.071356784" xlink:href="#m36a8c105a3" y="68.1202221265"/>
     <use style="fill:#0000ff;stroke:#0000ff;stroke-width:0.5;" x="951.557788945" xlink:href="#m36a8c105a3" y="67.9581658739"/>
     <use style="fill:#0000ff;stroke:#0000ff;stroke-width:0.5;" x="956.044221106" xlink:href="#m36a8c105a3" y="67.8086250812"/>
     <use style="fill:#0000ff;stroke:#0000ff;stroke-width:0.5;" x="960.530653266" xlink:href="#m36a8c105a3" y="67.6707687085"/>
     <use style="fill:#0000ff;stroke:#0000ff;stroke-width:0.5;" x="965.017085427" xlink:href="#m36a8c105a3" y="67.5438090758"/>
     <use style="fill:#0000ff;stroke:#0000ff;stroke-width:0.5;" x="969.503517588" xlink:href="#m36a8c105a3" y="67.4270005711"/>
     <use style="fill:#0000ff;stroke:#0000ff;stroke-width:0.5;" x="973.989949749" xlink:href="#m36a8c105a3" y="67.3196383178"/>
     <use style="fill:#0000ff;stroke:#0000ff;stroke-width:0.5;" x="978.47638191" xlink:href="#m36a8c105a3" y="67.2210568095"/>
     <use style="fill:#0000ff;stroke:#0000ff;stroke-width:0.5;" x="982.96281407" xlink:href="#m36a8c105a3" y="67.130628518"/>
     <use style="fill:#0000ff;stroke:#0000ff;stroke-width:0.5;" x="987.449246231" xlink:href="#m36a8c105a3" y="67.0477624851"/>
     <use style="fill:#0000ff;stroke:#0000ff;stroke-width:0.5;" x="991.935678392" xlink:href="#m36a8c105a3" y="66.9719029019"/>
     <use style="fill:#0000ff;stroke:#0000ff;stroke-width:0.5;" x="996.422110553" xlink:href="#m36a8c105a3" y="66.9025276846"/>
     <use style="fill:#0000ff;stroke:#0000ff;stroke-width:0.5;" x="1000.90854271" xlink:href="#m36a8c105a3" y="66.8391470512"/>
     <use style="fill:#0000ff;stroke:#0000ff;stroke-width:0.5;" x="1005.39497487" xlink:href="#m36a8c105a3" y="66.7813021059"/>
     <use style="fill:#0000ff;stroke:#0000ff;stroke-width:0.5;" x="1009.88140704" xlink:href="#m36a8c105a3" y="66.7285634353"/>
     <use style="fill:#0000ff;stroke:#0000ff;stroke-width:0.5;" x="1014.3678392" xlink:href="#m36a8c105a3" y="66.680529722"/>
     <use style="fill:#0000ff;stroke:#0000ff;stroke-width:0.5;" x="1018.85427136" xlink:href="#m36a8c105a3" y="66.6368263793"/>
     <use style="fill:#0000ff;stroke:#0000ff;stroke-width:0.5;" x="1023.34070352" xlink:href="#m36a8c105a3" y="66.5971042111"/>
     <use style="fill:#0000ff;stroke:#0000ff;stroke-width:0.5;" x="1027.82713568" xlink:href="#m36a8c105a3" y="66.5610381006"/>
     <use style="fill:#0000ff;stroke:#0000ff;stroke-width:0.5;" x="1032.31356784" xlink:href="#m36a8c105a3" y="66.5283257296"/>
    </g>
   </g>
   <g id="line2d_2">
    <path clip-path="url(#p5a6436449b)" d="M 534.319598 596.16 
L 534.319598 331.2 
" style="fill:none;stroke:#ff0000;stroke-dasharray:6.000000,6.000000;stroke-dashoffset:0.0;stroke-width:3.5;"/>
   </g>
   <g id="line2d_3">
    <path clip-path="url(#p5a6436449b)" d="M 790.046231 596.16 
L 790.046231 92.736 
" style="fill:none;stroke:#ff0000;stroke-dasharray:6.000000,6.000000;stroke-dashoffset:0.0;stroke-width:3.5;"/>
   </g>
   <g id="patch_3">
    <path d="M 1036.8 596.16 
L 1036.8 66.24 
" style="fill:none;stroke:#000000;stroke-linecap:square;stroke-linejoin:miter;"/>
   </g>
   <g id="patch_4">
    <path d="M 144 596.16 
L 144 66.24 
" style="fill:none;stroke:#000000;stroke-linecap:square;stroke-linejoin:miter;"/>
   </g>
   <g id="patch_5">
    <path d="M 144 596.16 
L 1036.8 596.16 
" style="fill:none;stroke:#000000;stroke-linecap:square;stroke-linejoin:miter;"/>
   </g>
   <g id="patch_6">
    <path d="M 144 66.24 
L 1036.8 66.24 
" style="fill:none;stroke:#000000;stroke-linecap:square;stroke-linejoin:miter;"/>
   </g>
   <g id="matplotlib.axis_1">
    <g id="xtick_1">
     <g id="line2d_4">
      <path clip-path="url(#p5a6436449b)" d="M 534.319598 596.16 
L 534.319598 66.24 
" style="fill:none;stroke:#000000;stroke-dasharray:1.000000,3.000000;stroke-dashoffset:0.0;stroke-width:0.5;"/>
     </g>
     <g id="line2d_5">
      <defs>
       <path d="M 0 0 
L 0 -4 
" id="mdaf39b271b" style="stroke:#000000;stroke-width:0.5;"/>
      </defs>
      <g>
       <use style="stroke:#000000;stroke-width:0.5;" x="534.31959799" xlink:href="#mdaf39b271b" y="596.16"/>
      </g>
     </g>
     <g id="line2d_6">
      <defs>
       <path d="M 0 0 
L 0 4 
" id="me51ec991f7" style="stroke:#000000;stroke-width:0.5;"/>
      </defs>
      <g>
       <use style="stroke:#000000;stroke-width:0.5;" x="534.31959799" xlink:href="#me51ec991f7" y="66.24"/>
      </g>
     </g>
     <g id="text_1">
      <!-- 88 -->
      <defs>
       <path d="M 31.78125 34.625 
Q 24.75 34.625 20.71875 30.859375 
Q 16.703125 27.09375 16.703125 20.515625 
Q 16.703125 13.921875 20.71875 10.15625 
Q 24.75 6.390625 31.78125 6.390625 
Q 38.8125 6.390625 42.859375 10.171875 
Q 46.921875 13.96875 46.921875 20.515625 
Q 46.921875 27.09375 42.890625 30.859375 
Q 38.875 34.625 31.78125 34.625 
M 21.921875 38.8125 
Q 15.578125 40.375 12.03125 44.71875 
Q 8.5 49.078125 8.5 55.328125 
Q 8.5 64.0625 14.71875 69.140625 
Q 20.953125 74.21875 31.78125 74.21875 
Q 42.671875 74.21875 48.875 69.140625 
Q 55.078125 64.0625 55.078125 55.328125 
Q 55.078125 49.078125 51.53125 44.71875 
Q 48 40.375 41.703125 38.8125 
Q 48.828125 37.15625 52.796875 32.3125 
Q 56.78125 27.484375 56.78125 20.515625 
Q 56.78125 9.90625 50.3125 4.234375 
Q 43.84375 -1.421875 31.78125 -1.421875 
Q 19.734375 -1.421875 13.25 4.234375 
Q 6.78125 9.90625 6.78125 20.515625 
Q 6.78125 27.484375 10.78125 32.3125 
Q 14.796875 37.15625 21.921875 38.8125 
M 18.3125 54.390625 
Q 18.3125 48.734375 21.84375 45.5625 
Q 25.390625 42.390625 31.78125 42.390625 
Q 38.140625 42.390625 41.71875 45.5625 
Q 45.3125 48.734375 45.3125 54.390625 
Q 45.3125 60.0625 41.71875 63.234375 
Q 38.140625 66.40625 31.78125 66.40625 
Q 25.390625 66.40625 21.84375 63.234375 
Q 18.3125 60.0625 18.3125 54.390625 
" id="BitstreamVeraSans-Roman-38"/>
      </defs>
      <g transform="translate(526.68459799 609.278125)scale(0.12 -0.12)">
       <use xlink:href="#BitstreamVeraSans-Roman-38"/>
       <use x="63.623046875" xlink:href="#BitstreamVeraSans-Roman-38"/>
      </g>
     </g>
    </g>
    <g id="xtick_2">
     <g id="line2d_7">
      <path clip-path="url(#p5a6436449b)" d="M 790.046231 596.16 
L 790.046231 66.24 
" style="fill:none;stroke:#000000;stroke-dasharray:1.000000,3.000000;stroke-dashoffset:0.0;stroke-width:0.5;"/>
     </g>
     <g id="line2d_8">
      <g>
       <use style="stroke:#000000;stroke-width:0.5;" x="790.046231156" xlink:href="#mdaf39b271b" y="596.16"/>
      </g>
     </g>
     <g id="line2d_9">
      <g>
       <use style="stroke:#000000;stroke-width:0.5;" x="790.046231156" xlink:href="#me51ec991f7" y="66.24"/>
      </g>
     </g>
     <g id="text_2">
      <!-- 145 -->
      <defs>
       <path d="M 10.796875 72.90625 
L 49.515625 72.90625 
L 49.515625 64.59375 
L 19.828125 64.59375 
L 19.828125 46.734375 
Q 21.96875 47.46875 24.109375 47.828125 
Q 26.265625 48.1875 28.421875 48.1875 
Q 40.625 48.1875 47.75 41.5 
Q 54.890625 34.8125 54.890625 23.390625 
Q 54.890625 11.625 47.5625 5.09375 
Q 40.234375 -1.421875 26.90625 -1.421875 
Q 22.3125 -1.421875 17.546875 -0.640625 
Q 12.796875 0.140625 7.71875 1.703125 
L 7.71875 11.625 
Q 12.109375 9.234375 16.796875 8.0625 
Q 21.484375 6.890625 26.703125 6.890625 
Q 35.15625 6.890625 40.078125 11.328125 
Q 45.015625 15.765625 45.015625 23.390625 
Q 45.015625 31 40.078125 35.4375 
Q 35.15625 39.890625 26.703125 39.890625 
Q 22.75 39.890625 18.8125 39.015625 
Q 14.890625 38.140625 10.796875 36.28125 
z
" id="BitstreamVeraSans-Roman-35"/>
       <path d="M 37.796875 64.3125 
L 12.890625 25.390625 
L 37.796875 25.390625 
z
M 35.203125 72.90625 
L 47.609375 72.90625 
L 47.609375 25.390625 
L 58.015625 25.390625 
L 58.015625 17.1875 
L 47.609375 17.1875 
L 47.609375 0 
L 37.796875 0 
L 37.796875 17.1875 
L 4.890625 17.1875 
L 4.890625 26.703125 
z
" id="BitstreamVeraSans-Roman-34"/>
       <path d="M 12.40625 8.296875 
L 28.515625 8.296875 
L 28.515625 63.921875 
L 10.984375 60.40625 
L 10.984375 69.390625 
L 28.421875 72.90625 
L 38.28125 72.90625 
L 38.28125 8.296875 
L 54.390625 8.296875 
L 54.390625 0 
L 12.40625 0 
z
" id="BitstreamVeraSans-Roman-31"/>
      </defs>
      <g transform="translate(778.593731156 609.278125)scale(0.12 -0.12)">
       <use xlink:href="#BitstreamVeraSans-Roman-31"/>
       <use x="63.623046875" xlink:href="#BitstreamVeraSans-Roman-34"/>
       <use x="127.24609375" xlink:href="#BitstreamVeraSans-Roman-35"/>
      </g>
     </g>
    </g>
    <g id="xtick_3">
     <g id="line2d_10">
      <path clip-path="url(#p5a6436449b)" d="M 144 596.16 
L 144 66.24 
" style="fill:none;stroke:#000000;stroke-dasharray:1.000000,3.000000;stroke-dashoffset:0.0;stroke-width:0.5;"/>
     </g>
     <g id="line2d_11">
      <g>
       <use style="stroke:#000000;stroke-width:0.5;" x="144.0" xlink:href="#mdaf39b271b" y="596.16"/>
      </g>
     </g>
     <g id="line2d_12">
      <g>
       <use style="stroke:#000000;stroke-width:0.5;" x="144.0" xlink:href="#me51ec991f7" y="66.24"/>
      </g>
     </g>
     <g id="text_3">
      <!-- 1 -->
      <g transform="translate(140.1825 609.278125)scale(0.12 -0.12)">
       <use xlink:href="#BitstreamVeraSans-Roman-31"/>
      </g>
     </g>
    </g>
    <g id="xtick_4">
     <g id="line2d_13">
      <path clip-path="url(#p5a6436449b)" d="M 1036.8 596.16 
L 1036.8 66.24 
" style="fill:none;stroke:#000000;stroke-dasharray:1.000000,3.000000;stroke-dashoffset:0.0;stroke-width:0.5;"/>
     </g>
     <g id="line2d_14">
      <g>
       <use style="stroke:#000000;stroke-width:0.5;" x="1036.8" xlink:href="#mdaf39b271b" y="596.16"/>
      </g>
     </g>
     <g id="line2d_15">
      <g>
       <use style="stroke:#000000;stroke-width:0.5;" x="1036.8" xlink:href="#me51ec991f7" y="66.24"/>
      </g>
     </g>
     <g id="text_4">
      <!-- 200 -->
      <defs>
       <path d="M 19.1875 8.296875 
L 53.609375 8.296875 
L 53.609375 0 
L 7.328125 0 
L 7.328125 8.296875 
Q 12.9375 14.109375 22.625 23.890625 
Q 32.328125 33.6875 34.8125 36.53125 
Q 39.546875 41.84375 41.421875 45.53125 
Q 43.3125 49.21875 43.3125 52.78125 
Q 43.3125 58.59375 39.234375 62.25 
Q 35.15625 65.921875 28.609375 65.921875 
Q 23.96875 65.921875 18.8125 64.3125 
Q 13.671875 62.703125 7.8125 59.421875 
L 7.8125 69.390625 
Q 13.765625 71.78125 18.9375 73 
Q 24.125 74.21875 28.421875 74.21875 
Q 39.75 74.21875 46.484375 68.546875 
Q 53.21875 62.890625 53.21875 53.421875 
Q 53.21875 48.921875 51.53125 44.890625 
Q 49.859375 40.875 45.40625 35.40625 
Q 44.1875 33.984375 37.640625 27.21875 
Q 31.109375 20.453125 19.1875 8.296875 
" id="BitstreamVeraSans-Roman-32"/>
       <path d="M 31.78125 66.40625 
Q 24.171875 66.40625 20.328125 58.90625 
Q 16.5 51.421875 16.5 36.375 
Q 16.5 21.390625 20.328125 13.890625 
Q 24.171875 6.390625 31.78125 6.390625 
Q 39.453125 6.390625 43.28125 13.890625 
Q 47.125 21.390625 47.125 36.375 
Q 47.125 51.421875 43.28125 58.90625 
Q 39.453125 66.40625 31.78125 66.40625 
M 31.78125 74.21875 
Q 44.046875 74.21875 50.515625 64.515625 
Q 56.984375 54.828125 56.984375 36.375 
Q 56.984375 17.96875 50.515625 8.265625 
Q 44.046875 -1.421875 31.78125 -1.421875 
Q 19.53125 -1.421875 13.0625 8.265625 
Q 6.59375 17.96875 6.59375 36.375 
Q 6.59375 54.828125 13.0625 64.515625 
Q 19.53125 74.21875 31.78125 74.21875 
" id="BitstreamVeraSans-Roman-30"/>
      </defs>
      <g transform="translate(1025.3475 609.278125)scale(0.12 -0.12)">
       <use xlink:href="#BitstreamVeraSans-Roman-32"/>
       <use x="63.623046875" xlink:href="#BitstreamVeraSans-Roman-30"/>
       <use x="127.24609375" xlink:href="#BitstreamVeraSans-Roman-30"/>
      </g>
     </g>
    </g>
    <g id="text_5">
     <!-- $n$ -->
     <defs>
      <path d="M 7.71875 1.703125 
Q 7.71875 2.296875 7.8125 2.59375 
L 15.28125 32.421875 
Q 16.015625 35.203125 16.015625 37.3125 
Q 16.015625 41.609375 13.09375 41.609375 
Q 9.96875 41.609375 8.453125 37.859375 
Q 6.9375 34.125 5.515625 28.421875 
Q 5.515625 28.125 5.21875 27.953125 
Q 4.9375 27.78125 4.6875 27.78125 
L 3.515625 27.78125 
Q 3.171875 27.78125 2.921875 28.140625 
Q 2.6875 28.515625 2.6875 28.8125 
Q 3.765625 33.15625 4.765625 36.171875 
Q 5.765625 39.203125 7.890625 41.6875 
Q 10.015625 44.1875 13.1875 44.1875 
Q 16.9375 44.1875 19.8125 41.8125 
Q 22.703125 39.453125 22.703125 35.796875 
Q 25.6875 39.703125 29.6875 41.9375 
Q 33.6875 44.1875 38.1875 44.1875 
Q 41.75 44.1875 44.328125 42.96875 
Q 46.921875 41.75 48.359375 39.28125 
Q 49.8125 36.8125 49.8125 33.40625 
Q 49.8125 29.296875 47.96875 23.484375 
Q 46.140625 17.671875 43.40625 10.5 
Q 42 7.234375 42 4.5 
Q 42 1.515625 44.28125 1.515625 
Q 48.1875 1.515625 50.796875 5.703125 
Q 53.421875 9.90625 54.5 14.703125 
Q 54.6875 15.28125 55.328125 15.28125 
L 56.5 15.28125 
Q 56.890625 15.28125 57.15625 15.03125 
Q 57.421875 14.796875 57.421875 14.40625 
Q 57.421875 14.3125 57.328125 14.109375 
Q 55.953125 8.453125 52.5625 3.65625 
Q 49.171875 -1.125 44.09375 -1.125 
Q 40.578125 -1.125 38.078125 1.296875 
Q 35.59375 3.71875 35.59375 7.171875 
Q 35.59375 9.03125 36.375 11.078125 
Q 37.640625 14.359375 39.28125 18.890625 
Q 40.921875 23.4375 41.96875 27.578125 
Q 43.015625 31.734375 43.015625 34.90625 
Q 43.015625 37.703125 41.859375 39.65625 
Q 40.71875 41.609375 37.984375 41.609375 
Q 34.328125 41.609375 31.25 39.984375 
Q 28.171875 38.375 25.875 35.71875 
Q 23.578125 33.0625 21.6875 29.390625 
L 14.890625 2.203125 
Q 14.546875 0.828125 13.34375 -0.140625 
Q 12.15625 -1.125 10.6875 -1.125 
Q 9.46875 -1.125 8.59375 -0.34375 
Q 7.71875 0.4375 7.71875 1.703125 
" id="Cmmi10-6e"/>
     </defs>
     <g transform="translate(586.74 625.891875)scale(0.12 -0.12)">
      <use transform="translate(0.0 0.8125)" xlink:href="#Cmmi10-6e"/>
     </g>
    </g>
   </g>
   <g id="matplotlib.axis_2">
    <g id="ytick_1">
     <g id="line2d_16">
      <path clip-path="url(#p5a6436449b)" d="M 144 331.2 
L 1036.8 331.2 
" style="fill:none;stroke:#000000;stroke-dasharray:1.000000,3.000000;stroke-dashoffset:0.0;stroke-width:0.5;"/>
     </g>
     <g id="line2d_17">
      <defs>
       <path d="M 0 0 
L 4 0 
" id="m83bf4b0e2a" style="stroke:#000000;stroke-width:0.5;"/>
      </defs>
      <g>
       <use style="stroke:#000000;stroke-width:0.5;" x="144.0" xlink:href="#m83bf4b0e2a" y="331.2"/>
      </g>
     </g>
     <g id="line2d_18">
      <defs>
       <path d="M 0 0 
L -4 0 
" id="md6972f6cd8" style="stroke:#000000;stroke-width:0.5;"/>
      </defs>
      <g>
       <use style="stroke:#000000;stroke-width:0.5;" x="1036.8" xlink:href="#md6972f6cd8" y="331.2"/>
      </g>
     </g>
     <g id="text_6">
      <!-- 0.50 -->
      <defs>
       <path d="M 10.6875 12.40625 
L 21 12.40625 
L 21 0 
L 10.6875 0 
z
" id="BitstreamVeraSans-Roman-2e"/>
      </defs>
      <g transform="translate(113.28125 334.51125)scale(0.12 -0.12)">
       <use xlink:href="#BitstreamVeraSans-Roman-30"/>
       <use x="63.623046875" xlink:href="#BitstreamVeraSans-Roman-2e"/>
       <use x="95.41015625" xlink:href="#BitstreamVeraSans-Roman-35"/>
       <use x="159.033203125" xlink:href="#BitstreamVeraSans-Roman-30"/>
      </g>
     </g>
    </g>
    <g id="ytick_2">
     <g id="line2d_19">
      <path clip-path="url(#p5a6436449b)" d="M 144 92.736 
L 1036.8 92.736 
" style="fill:none;stroke:#000000;stroke-dasharray:1.000000,3.000000;stroke-dashoffset:0.0;stroke-width:0.5;"/>
     </g>
     <g id="line2d_20">
      <g>
       <use style="stroke:#000000;stroke-width:0.5;" x="144.0" xlink:href="#m83bf4b0e2a" y="92.736"/>
      </g>
     </g>
     <g id="line2d_21">
      <g>
       <use style="stroke:#000000;stroke-width:0.5;" x="1036.8" xlink:href="#md6972f6cd8" y="92.736"/>
      </g>
     </g>
     <g id="text_7">
      <!-- 0.95 -->
      <defs>
       <path d="M 10.984375 1.515625 
L 10.984375 10.5 
Q 14.703125 8.734375 18.5 7.8125 
Q 22.3125 6.890625 25.984375 6.890625 
Q 35.75 6.890625 40.890625 13.453125 
Q 46.046875 20.015625 46.78125 33.40625 
Q 43.953125 29.203125 39.59375 26.953125 
Q 35.25 24.703125 29.984375 24.703125 
Q 19.046875 24.703125 12.671875 31.3125 
Q 6.296875 37.9375 6.296875 49.421875 
Q 6.296875 60.640625 12.9375 67.421875 
Q 19.578125 74.21875 30.609375 74.21875 
Q 43.265625 74.21875 49.921875 64.515625 
Q 56.59375 54.828125 56.59375 36.375 
Q 56.59375 19.140625 48.40625 8.859375 
Q 40.234375 -1.421875 26.421875 -1.421875 
Q 22.703125 -1.421875 18.890625 -0.6875 
Q 15.09375 0.046875 10.984375 1.515625 
M 30.609375 32.421875 
Q 37.25 32.421875 41.125 36.953125 
Q 45.015625 41.5 45.015625 49.421875 
Q 45.015625 57.28125 41.125 61.84375 
Q 37.25 66.40625 30.609375 66.40625 
Q 23.96875 66.40625 20.09375 61.84375 
Q 16.21875 57.28125 16.21875 49.421875 
Q 16.21875 41.5 20.09375 36.953125 
Q 23.96875 32.421875 30.609375 32.421875 
" id="BitstreamVeraSans-Roman-39"/>
      </defs>
      <g transform="translate(113.28125 96.04725)scale(0.12 -0.12)">
       <use xlink:href="#BitstreamVeraSans-Roman-30"/>
       <use x="63.623046875" xlink:href="#BitstreamVeraSans-Roman-2e"/>
       <use x="95.41015625" xlink:href="#BitstreamVeraSans-Roman-39"/>
       <use x="159.033203125" xlink:href="#BitstreamVeraSans-Roman-35"/>
      </g>
     </g>
    </g>
    <g id="ytick_3">
     <g id="line2d_22">
      <path clip-path="url(#p5a6436449b)" d="M 144 596.16 
L 1036.8 596.16 
" style="fill:none;stroke:#000000;stroke-dasharray:1.000000,3.000000;stroke-dashoffset:0.0;stroke-width:0.5;"/>
     </g>
     <g id="line2d_23">
      <g>
       <use style="stroke:#000000;stroke-width:0.5;" x="144.0" xlink:href="#m83bf4b0e2a" y="596.16"/>
      </g>
     </g>
     <g id="line2d_24">
      <g>
       <use style="stroke:#000000;stroke-width:0.5;" x="1036.8" xlink:href="#md6972f6cd8" y="596.16"/>
      </g>
     </g>
     <g id="text_8">
      <!-- 0.00 -->
      <g transform="translate(113.28125 599.47125)scale(0.12 -0.12)">
       <use xlink:href="#BitstreamVeraSans-Roman-30"/>
       <use x="63.623046875" xlink:href="#BitstreamVeraSans-Roman-2e"/>
       <use x="95.41015625" xlink:href="#BitstreamVeraSans-Roman-30"/>
       <use x="159.033203125" xlink:href="#BitstreamVeraSans-Roman-30"/>
      </g>
     </g>
    </g>
    <g id="ytick_4">
     <g id="line2d_25">
      <path clip-path="url(#p5a6436449b)" d="M 144 66.24 
L 1036.8 66.24 
" style="fill:none;stroke:#000000;stroke-dasharray:1.000000,3.000000;stroke-dashoffset:0.0;stroke-width:0.5;"/>
     </g>
     <g id="line2d_26">
      <g>
       <use style="stroke:#000000;stroke-width:0.5;" x="144.0" xlink:href="#m83bf4b0e2a" y="66.24"/>
      </g>
     </g>
     <g id="line2d_27">
      <g>
       <use style="stroke:#000000;stroke-width:0.5;" x="1036.8" xlink:href="#md6972f6cd8" y="66.24"/>
      </g>
     </g>
     <g id="text_9">
      <!-- 1.00 -->
      <g transform="translate(113.28125 69.55125)scale(0.12 -0.12)">
       <use xlink:href="#BitstreamVeraSans-Roman-31"/>
       <use x="63.623046875" xlink:href="#BitstreamVeraSans-Roman-2e"/>
       <use x="95.41015625" xlink:href="#BitstreamVeraSans-Roman-30"/>
       <use x="159.033203125" xlink:href="#BitstreamVeraSans-Roman-30"/>
      </g>
     </g>
    </g>
    <g id="text_10">
     <!-- $p_n$ -->
     <defs>
      <path d="M -2.484375 -19.390625 
Q -3.421875 -19.390625 -3.421875 -18.109375 
Q -3.078125 -15.921875 -2.09375 -15.921875 
Q 1.03125 -15.921875 2.265625 -15.359375 
Q 3.515625 -14.796875 4.203125 -12.5 
L 15.484375 32.515625 
Q 16.21875 34.375 16.21875 37.3125 
Q 16.21875 41.609375 13.28125 41.609375 
Q 10.15625 41.609375 8.640625 37.859375 
Q 7.125 34.125 5.71875 28.421875 
Q 5.71875 27.78125 4.890625 27.78125 
L 3.71875 27.78125 
Q 3.46875 27.78125 3.171875 28.140625 
Q 2.875 28.515625 2.875 28.8125 
Q 3.953125 33.15625 4.953125 36.171875 
Q 5.953125 39.203125 8.078125 41.6875 
Q 10.203125 44.1875 13.375 44.1875 
Q 16.796875 44.1875 19.375 42.25 
Q 21.96875 40.328125 22.703125 37.015625 
Q 25.4375 40.1875 28.75 42.1875 
Q 32.078125 44.1875 35.59375 44.1875 
Q 39.796875 44.1875 42.890625 41.9375 
Q 46 39.703125 47.5625 36.0625 
Q 49.125 32.421875 49.125 28.21875 
Q 49.125 21.78125 45.828125 14.890625 
Q 42.53125 8.015625 36.890625 3.4375 
Q 31.25 -1.125 24.8125 -1.125 
Q 21.875 -1.125 19.5 0.53125 
Q 17.140625 2.203125 15.828125 4.890625 
L 11.28125 -12.890625 
Q 11.03125 -14.359375 10.984375 -14.59375 
Q 10.984375 -15.921875 17.578125 -15.921875 
Q 18.609375 -15.921875 18.609375 -17.1875 
Q 18.265625 -18.5 18.046875 -18.9375 
Q 17.828125 -19.390625 16.890625 -19.390625 
z
M 24.90625 1.515625 
Q 28.375 1.515625 31.34375 4.375 
Q 34.328125 7.234375 36.1875 10.796875 
Q 37.546875 13.484375 38.734375 17.359375 
Q 39.9375 21.234375 40.8125 25.625 
Q 41.703125 30.03125 41.703125 32.625 
Q 41.703125 34.90625 41.09375 36.90625 
Q 40.484375 38.921875 39.09375 40.265625 
Q 37.703125 41.609375 35.40625 41.609375 
Q 31.734375 41.609375 28.484375 38.984375 
Q 25.25 36.375 22.609375 32.515625 
L 22.609375 32.171875 
L 17.09375 10.109375 
Q 17.78125 6.546875 19.734375 4.03125 
Q 21.6875 1.515625 24.90625 1.515625 
" id="Cmmi10-70"/>
     </defs>
     <g transform="translate(105.785625 337.14)rotate(-90.0)scale(0.12 -0.12)">
      <use transform="translate(0.0 0.8125)" xlink:href="#Cmmi10-70"/>
      <use transform="translate(50.29296875 -16.19375)scale(0.7)" xlink:href="#Cmmi10-6e"/>
     </g>
    </g>
   </g>
   <g id="patch_7">
    <path d="M 489.778365 320.887761 
Q 511.399528 320.953611 531.480518 329.915195 
" style="fill:none;stroke:#000000;stroke-linecap:round;"/>
    <path d="M 526.940196 324.384781 
L 531.480518 329.915195 
L 524.331994 330.229204 
" style="fill:none;stroke:#000000;stroke-linecap:round;"/>
   </g>
   <g id="text_11">
    <!-- $n_{0.5}=88$ -->
    <defs>
     <path d="M 8.6875 11.375 
Q 9.71875 8.453125 11.84375 6.046875 
Q 13.96875 3.65625 16.875 2.3125 
Q 19.78125 0.984375 22.90625 0.984375 
Q 30.125 0.984375 32.859375 6.59375 
Q 35.59375 12.203125 35.59375 20.21875 
Q 35.59375 23.6875 35.46875 26.046875 
Q 35.359375 28.421875 34.8125 30.609375 
Q 33.890625 34.125 31.5625 36.765625 
Q 29.25 39.40625 25.875 39.40625 
Q 22.515625 39.40625 20.09375 38.375 
Q 17.671875 37.359375 16.15625 35.984375 
Q 14.65625 34.625 13.484375 33.109375 
Q 12.3125 31.59375 12.015625 31.5 
L 10.890625 31.5 
Q 10.640625 31.5 10.265625 31.8125 
Q 9.90625 32.125 9.90625 32.421875 
L 9.90625 65.828125 
Q 9.90625 66.0625 10.21875 66.328125 
Q 10.546875 66.609375 10.890625 66.609375 
L 11.1875 66.609375 
Q 17.921875 63.375 25.484375 63.375 
Q 32.90625 63.375 39.796875 66.609375 
L 40.09375 66.609375 
Q 40.4375 66.609375 40.71875 66.359375 
Q 41.015625 66.109375 41.015625 65.828125 
L 41.015625 64.890625 
Q 41.015625 64.40625 40.828125 64.40625 
Q 37.40625 59.859375 32.25 57.3125 
Q 27.09375 54.78125 21.578125 54.78125 
Q 17.578125 54.78125 13.375 55.90625 
L 13.375 37.015625 
Q 16.703125 39.703125 19.3125 40.84375 
Q 21.921875 42 25.984375 42 
Q 31.5 42 35.859375 38.8125 
Q 40.234375 35.640625 42.578125 30.53125 
Q 44.921875 25.4375 44.921875 20.125 
Q 44.921875 14.109375 41.96875 8.984375 
Q 39.015625 3.859375 33.9375 0.828125 
Q 28.859375 -2.203125 22.90625 -2.203125 
Q 17.96875 -2.203125 13.84375 0.328125 
Q 9.71875 2.875 7.34375 7.171875 
Q 4.984375 11.46875 4.984375 16.3125 
Q 4.984375 18.5625 6.4375 19.96875 
Q 7.90625 21.390625 10.109375 21.390625 
Q 12.3125 21.390625 13.796875 19.9375 
Q 15.28125 18.5 15.28125 16.3125 
Q 15.28125 14.15625 13.796875 12.671875 
Q 12.3125 11.1875 10.109375 11.1875 
Q 9.765625 11.1875 9.328125 11.25 
Q 8.890625 11.328125 8.6875 11.375 
" id="Cmr10-35"/>
     <path d="M 7.515625 13.28125 
Q 6.6875 13.28125 6.140625 13.90625 
Q 5.609375 14.546875 5.609375 15.28125 
Q 5.609375 16.109375 6.140625 16.6875 
Q 6.6875 17.28125 7.515625 17.28125 
L 70.3125 17.28125 
Q 71.046875 17.28125 71.578125 16.6875 
Q 72.125 16.109375 72.125 15.28125 
Q 72.125 14.546875 71.578125 13.90625 
Q 71.046875 13.28125 70.3125 13.28125 
z
M 7.515625 32.71875 
Q 6.6875 32.71875 6.140625 33.296875 
Q 5.609375 33.890625 5.609375 34.71875 
Q 5.609375 35.453125 6.140625 36.078125 
Q 6.6875 36.71875 7.515625 36.71875 
L 70.3125 36.71875 
Q 71.046875 36.71875 71.578125 36.078125 
Q 72.125 35.453125 72.125 34.71875 
Q 72.125 33.890625 71.578125 33.296875 
Q 71.046875 32.71875 70.3125 32.71875 
z
" id="Cmr10-3d"/>
     <path d="M 25 -2.203125 
Q 12.75 -2.203125 8.328125 7.875 
Q 3.90625 17.96875 3.90625 31.890625 
Q 3.90625 40.578125 5.484375 48.234375 
Q 7.078125 55.90625 11.78125 61.25 
Q 16.5 66.609375 25 66.609375 
Q 31.59375 66.609375 35.78125 63.375 
Q 39.984375 60.15625 42.1875 55.046875 
Q 44.390625 49.953125 45.1875 44.109375 
Q 46 38.28125 46 31.890625 
Q 46 23.296875 44.40625 15.796875 
Q 42.828125 8.296875 38.1875 3.046875 
Q 33.546875 -2.203125 25 -2.203125 
M 25 0.390625 
Q 30.5625 0.390625 33.296875 6.09375 
Q 36.03125 11.8125 36.671875 18.75 
Q 37.3125 25.6875 37.3125 33.5 
Q 37.3125 41.015625 36.671875 47.359375 
Q 36.03125 53.71875 33.3125 58.859375 
Q 30.609375 64.015625 25 64.015625 
Q 19.34375 64.015625 16.609375 58.828125 
Q 13.875 53.65625 13.234375 47.328125 
Q 12.59375 41.015625 12.59375 33.5 
Q 12.59375 27.9375 12.859375 23 
Q 13.140625 18.0625 14.3125 12.8125 
Q 15.484375 7.5625 18.09375 3.96875 
Q 20.703125 0.390625 25 0.390625 
" id="Cmr10-30"/>
     <path d="M 8.40625 5.515625 
Q 8.40625 7.765625 10.0625 9.375 
Q 11.71875 10.984375 13.921875 10.984375 
Q 15.28125 10.984375 16.59375 10.25 
Q 17.921875 9.515625 18.65625 8.203125 
Q 19.390625 6.890625 19.390625 5.515625 
Q 19.390625 3.328125 17.765625 1.65625 
Q 16.15625 0 13.921875 0 
Q 11.71875 0 10.0625 1.65625 
Q 8.40625 3.328125 8.40625 5.515625 
" id="Cmmi10-3a"/>
     <path d="M 4.203125 15.1875 
Q 4.203125 21.1875 8.15625 25.796875 
Q 12.109375 30.421875 18.3125 33.5 
L 14.59375 35.890625 
Q 11.1875 38.140625 9.03125 41.875 
Q 6.890625 45.609375 6.890625 49.703125 
Q 6.890625 54.5 9.40625 58.34375 
Q 11.921875 62.203125 16.09375 64.40625 
Q 20.265625 66.609375 25 66.609375 
Q 29.4375 66.609375 33.5625 64.796875 
Q 37.703125 62.984375 40.359375 59.609375 
Q 43.015625 56.25 43.015625 51.609375 
Q 43.015625 48.25 41.421875 45.359375 
Q 39.84375 42.484375 37.078125 40.1875 
Q 34.328125 37.890625 31.203125 36.28125 
L 36.921875 32.625 
Q 40.875 30.03125 43.28125 25.828125 
Q 45.703125 21.625 45.703125 17 
Q 45.703125 11.578125 42.796875 7.125 
Q 39.890625 2.6875 35.109375 0.234375 
Q 30.328125 -2.203125 25 -2.203125 
Q 19.828125 -2.203125 15.015625 -0.09375 
Q 10.203125 2 7.203125 5.984375 
Q 4.203125 9.96875 4.203125 15.1875 
M 9.625 15.1875 
Q 9.625 11.234375 11.796875 7.953125 
Q 13.96875 4.6875 17.53125 2.828125 
Q 21.09375 0.984375 25 0.984375 
Q 30.8125 0.984375 35.546875 4.375 
Q 40.28125 7.765625 40.28125 13.375 
Q 40.28125 15.28125 39.515625 17.15625 
Q 38.765625 19.046875 37.421875 20.578125 
Q 36.078125 22.125 34.421875 23.09375 
L 21 31.78125 
Q 17.875 30.125 15.25 27.578125 
Q 12.640625 25.046875 11.125 21.875 
Q 9.625 18.703125 9.625 15.1875 
M 16.5 45.703125 
L 28.609375 37.890625 
Q 32.8125 40.328125 35.5 43.796875 
Q 38.1875 47.265625 38.1875 51.609375 
Q 38.1875 54.984375 36.296875 57.78125 
Q 34.421875 60.59375 31.390625 62.15625 
Q 28.375 63.71875 24.90625 63.71875 
Q 21.875 63.71875 18.796875 62.546875 
Q 15.71875 61.375 13.71875 59.046875 
Q 11.71875 56.734375 11.71875 53.609375 
Q 11.71875 48.921875 16.5 45.703125 
" id="Cmr10-38"/>
    </defs>
    <g transform="translate(424.31959799 331.2)scale(0.16 -0.16)">
     <use transform="translate(0.0 0.390625)" xlink:href="#Cmmi10-6e"/>
     <use transform="translate(60.009765625 -16.615624999999994)scale(0.7)" xlink:href="#Cmr10-30"/>
     <use transform="translate(95.009765625 -16.615624999999994)scale(0.7)" xlink:href="#Cmmi10-3a"/>
     <use transform="translate(126.6806640625 -16.615624999999994)scale(0.7)" xlink:href="#Cmr10-35"/>
     <use transform="translate(185.6166015625 0.390625)" xlink:href="#Cmr10-3d"/>
     <use transform="translate(280.8607421875 0.390625)" xlink:href="#Cmr10-38"/>
     <use transform="translate(330.8607421875 0.390625)" xlink:href="#Cmr10-38"/>
    </g>
   </g>
   <g id="patch_8">
    <path d="M 759.090335 83.694208 
Q 773.806703 85.398092 787.212532 91.439469 
" style="fill:none;stroke:#000000;stroke-linecap:round;"/>
    <path d="M 782.692412 85.892532 
L 787.212532 91.439469 
L 780.06291 91.727403 
" style="fill:none;stroke:#000000;stroke-linecap:round;"/>
   </g>
   <g id="text_12">
    <!-- $n_{0.95}=145$ -->
    <defs>
     <path d="M 2.78125 16.5 
L 2.78125 20.015625 
L 33.6875 66.109375 
Q 34.03125 66.609375 34.71875 66.609375 
L 36.1875 66.609375 
Q 37.3125 66.609375 37.3125 65.484375 
L 37.3125 20.015625 
L 47.125 20.015625 
L 47.125 16.5 
L 37.3125 16.5 
L 37.3125 6.6875 
Q 37.3125 4.640625 40.234375 4.078125 
Q 43.171875 3.515625 47.015625 3.515625 
L 47.015625 0 
L 19.484375 0 
L 19.484375 3.515625 
Q 23.34375 3.515625 26.265625 4.078125 
Q 29.203125 4.640625 29.203125 6.6875 
L 29.203125 16.5 
z
M 6.109375 20.015625 
L 29.78125 20.015625 
L 29.78125 55.421875 
z
" id="Cmr10-34"/>
     <path d="M 11.28125 4.203125 
Q 14.015625 0.984375 20.796875 0.984375 
Q 24.609375 0.984375 27.90625 3.5625 
Q 31.203125 6.15625 33.015625 9.90625 
Q 35.109375 14.15625 35.6875 18.96875 
Q 36.28125 23.78125 36.28125 30.90625 
Q 34.578125 26.859375 31.375 24.265625 
Q 28.171875 21.6875 24.03125 21.6875 
Q 18.21875 21.6875 13.640625 24.828125 
Q 9.078125 27.984375 6.640625 33.125 
Q 4.203125 38.28125 4.203125 44.09375 
Q 4.203125 50.09375 6.9375 55.296875 
Q 9.671875 60.5 14.5 63.546875 
Q 19.34375 66.609375 25.484375 66.609375 
Q 31.546875 66.609375 35.625 63.3125 
Q 39.703125 60.015625 41.84375 54.8125 
Q 44 49.609375 44.84375 43.796875 
Q 45.703125 37.984375 45.703125 32.328125 
Q 45.703125 24.609375 42.875 16.578125 
Q 40.046875 8.546875 34.40625 3.171875 
Q 28.765625 -2.203125 20.796875 -2.203125 
Q 14.890625 -2.203125 10.78125 0.578125 
Q 6.6875 3.375 6.6875 8.984375 
Q 6.6875 11.03125 8.078125 12.421875 
Q 9.46875 13.8125 11.53125 13.8125 
Q 13.53125 13.8125 14.921875 12.421875 
Q 16.3125 11.03125 16.3125 8.984375 
Q 16.3125 7.03125 14.890625 5.609375 
Q 13.484375 4.203125 11.53125 4.203125 
z
M 24.421875 24.3125 
Q 28.515625 24.3125 31.125 27.0625 
Q 33.734375 29.828125 34.90625 33.921875 
Q 36.078125 38.03125 36.078125 42.09375 
L 36.078125 44 
L 36.078125 44.390625 
Q 36.078125 51.90625 33.875 57.8125 
Q 31.6875 63.71875 25.484375 63.71875 
Q 21.53125 63.71875 19.0625 61.984375 
Q 16.609375 60.25 15.4375 57.375 
Q 14.265625 54.5 13.9375 51.21875 
Q 13.625 47.953125 13.625 44.09375 
Q 13.625 38.421875 14.15625 34.421875 
Q 14.703125 30.421875 17.09375 27.359375 
Q 19.484375 24.3125 24.421875 24.3125 
" id="Cmr10-39"/>
     <path d="M 9.28125 0 
L 9.28125 3.515625 
Q 21.78125 3.515625 21.78125 6.6875 
L 21.78125 59.1875 
Q 16.609375 56.6875 8.6875 56.6875 
L 8.6875 60.203125 
Q 20.953125 60.203125 27.203125 66.609375 
L 28.609375 66.609375 
Q 28.953125 66.609375 29.265625 66.328125 
Q 29.59375 66.0625 29.59375 65.71875 
L 29.59375 6.6875 
Q 29.59375 3.515625 42.09375 3.515625 
L 42.09375 0 
z
" id="Cmr10-31"/>
    </defs>
    <g transform="translate(680.046231156 92.736)scale(0.16 -0.16)">
     <use transform="translate(0.0 0.390625)" xlink:href="#Cmmi10-6e"/>
     <use transform="translate(60.009765625 -16.615624999999994)scale(0.7)" xlink:href="#Cmr10-30"/>
     <use transform="translate(95.009765625 -16.615624999999994)scale(0.7)" xlink:href="#Cmmi10-3a"/>
     <use transform="translate(126.6806640625 -16.615624999999994)scale(0.7)" xlink:href="#Cmr10-39"/>
     <use transform="translate(161.6806640625 -16.615624999999994)scale(0.7)" xlink:href="#Cmr10-35"/>
     <use transform="translate(220.6166015625 0.390625)" xlink:href="#Cmr10-3d"/>
     <use transform="translate(315.8607421875 0.390625)" xlink:href="#Cmr10-31"/>
     <use transform="translate(365.8607421875 0.390625)" xlink:href="#Cmr10-34"/>
     <use transform="translate(415.8607421875 0.390625)" xlink:href="#Cmr10-35"/>
    </g>
   </g>
   <g id="text_13">
    <!-- Graphe de la suite $(p_n)_{n0}$ -->
    <defs>
     <path d="M 34.28125 27.484375 
Q 23.390625 27.484375 19.1875 25 
Q 14.984375 22.515625 14.984375 16.5 
Q 14.984375 11.71875 18.140625 8.90625 
Q 21.296875 6.109375 26.703125 6.109375 
Q 34.1875 6.109375 38.703125 11.40625 
Q 43.21875 16.703125 43.21875 25.484375 
L 43.21875 27.484375 
z
M 52.203125 31.203125 
L 52.203125 0 
L 43.21875 0 
L 43.21875 8.296875 
Q 40.140625 3.328125 35.546875 0.953125 
Q 30.953125 -1.421875 24.3125 -1.421875 
Q 15.921875 -1.421875 10.953125 3.296875 
Q 6 8.015625 6 15.921875 
Q 6 25.140625 12.171875 29.828125 
Q 18.359375 34.515625 30.609375 34.515625 
L 43.21875 34.515625 
L 43.21875 35.40625 
Q 43.21875 41.609375 39.140625 45 
Q 35.0625 48.390625 27.6875 48.390625 
Q 23 48.390625 18.546875 47.265625 
Q 14.109375 46.140625 10.015625 43.890625 
L 10.015625 52.203125 
Q 14.9375 54.109375 19.578125 55.046875 
Q 24.21875 56 28.609375 56 
Q 40.484375 56 46.34375 49.84375 
Q 52.203125 43.703125 52.203125 31.203125 
" id="BitstreamVeraSans-Roman-61"/>
     <path d="M 9.421875 54.6875 
L 18.40625 54.6875 
L 18.40625 0 
L 9.421875 0 
z
M 9.421875 75.984375 
L 18.40625 75.984375 
L 18.40625 64.59375 
L 9.421875 64.59375 
z
" id="BitstreamVeraSans-Roman-69"/>
     <path d="M 9.421875 75.984375 
L 18.40625 75.984375 
L 18.40625 0 
L 9.421875 0 
z
" id="BitstreamVeraSans-Roman-6c"/>
     <path d="M 56.203125 29.59375 
L 56.203125 25.203125 
L 14.890625 25.203125 
Q 15.484375 15.921875 20.484375 11.0625 
Q 25.484375 6.203125 34.421875 6.203125 
Q 39.59375 6.203125 44.453125 7.46875 
Q 49.3125 8.734375 54.109375 11.28125 
L 54.109375 2.78125 
Q 49.265625 0.734375 44.1875 -0.34375 
Q 39.109375 -1.421875 33.890625 -1.421875 
Q 20.796875 -1.421875 13.15625 6.1875 
Q 5.515625 13.8125 5.515625 26.8125 
Q 5.515625 40.234375 12.765625 48.109375 
Q 20.015625 56 32.328125 56 
Q 43.359375 56 49.78125 48.890625 
Q 56.203125 41.796875 56.203125 29.59375 
M 47.21875 32.234375 
Q 47.125 39.59375 43.09375 43.984375 
Q 39.0625 48.390625 32.421875 48.390625 
Q 24.90625 48.390625 20.390625 44.140625 
Q 15.875 39.890625 15.1875 32.171875 
z
" id="BitstreamVeraSans-Roman-65"/>
     <path d="M 18.109375 8.203125 
L 18.109375 -20.796875 
L 9.078125 -20.796875 
L 9.078125 54.6875 
L 18.109375 54.6875 
L 18.109375 46.390625 
Q 20.953125 51.265625 25.265625 53.625 
Q 29.59375 56 35.59375 56 
Q 45.5625 56 51.78125 48.09375 
Q 58.015625 40.1875 58.015625 27.296875 
Q 58.015625 14.40625 51.78125 6.484375 
Q 45.5625 -1.421875 35.59375 -1.421875 
Q 29.59375 -1.421875 25.265625 0.953125 
Q 20.953125 3.328125 18.109375 8.203125 
M 48.6875 27.296875 
Q 48.6875 37.203125 44.609375 42.84375 
Q 40.53125 48.484375 33.40625 48.484375 
Q 26.265625 48.484375 22.1875 42.84375 
Q 18.109375 37.203125 18.109375 27.296875 
Q 18.109375 17.390625 22.1875 11.75 
Q 26.265625 6.109375 33.40625 6.109375 
Q 40.53125 6.109375 44.609375 11.75 
Q 48.6875 17.390625 48.6875 27.296875 
" id="BitstreamVeraSans-Roman-70"/>
     <path d="M 62.90625 32.40625 
L 6.40625 5.09375 
L 6.40625 11.40625 
L 49.59375 32.90625 
L 6.40625 54.40625 
L 6.40625 60.90625 
L 62.90625 33.40625 
z
M 62.90625 -10.296875 
L 6.40625 -10.296875 
L 6.40625 -3.703125 
L 62.90625 -3.703125 
z
" id="STIXGeneral-Regular-2265"/>
     <path d="M 31 -24.8125 
Q 25.4375 -20.40625 21.40625 -14.71875 
Q 17.390625 -9.03125 14.8125 -2.578125 
Q 12.25 3.859375 10.984375 10.890625 
Q 9.71875 17.921875 9.71875 25 
Q 9.71875 32.171875 10.984375 39.203125 
Q 12.25 46.234375 14.859375 52.734375 
Q 17.484375 59.234375 21.53125 64.890625 
Q 25.59375 70.5625 31 74.8125 
Q 31 75 31.5 75 
L 32.421875 75 
Q 32.71875 75 32.953125 74.734375 
Q 33.203125 74.46875 33.203125 74.125 
Q 33.203125 73.6875 33.015625 73.484375 
Q 28.125 68.703125 24.875 63.234375 
Q 21.625 57.765625 19.640625 51.578125 
Q 17.671875 45.40625 16.796875 38.78125 
Q 15.921875 32.171875 15.921875 25 
Q 15.921875 -6.78125 32.90625 -23.296875 
Q 33.203125 -23.578125 33.203125 -24.125 
Q 33.203125 -24.359375 32.9375 -24.671875 
Q 32.671875 -25 32.421875 -25 
L 31.5 -25 
Q 31 -25 31 -24.8125 
" id="Cmr10-28"/>
     <path d="M 18.3125 70.21875 
L 18.3125 54.6875 
L 36.8125 54.6875 
L 36.8125 47.703125 
L 18.3125 47.703125 
L 18.3125 18.015625 
Q 18.3125 11.328125 20.140625 9.421875 
Q 21.96875 7.515625 27.59375 7.515625 
L 36.8125 7.515625 
L 36.8125 0 
L 27.59375 0 
Q 17.1875 0 13.234375 3.875 
Q 9.28125 7.765625 9.28125 18.015625 
L 9.28125 47.703125 
L 2.6875 47.703125 
L 2.6875 54.6875 
L 9.28125 54.6875 
L 9.28125 70.21875 
z
" id="BitstreamVeraSans-Roman-74"/>
     <path d="M 41.109375 46.296875 
Q 39.59375 47.171875 37.8125 47.578125 
Q 36.03125 48 33.890625 48 
Q 26.265625 48 22.1875 43.046875 
Q 18.109375 38.09375 18.109375 28.8125 
L 18.109375 0 
L 9.078125 0 
L 9.078125 54.6875 
L 18.109375 54.6875 
L 18.109375 46.1875 
Q 20.953125 51.171875 25.484375 53.578125 
Q 30.03125 56 36.53125 56 
Q 37.453125 56 38.578125 55.875 
Q 39.703125 55.765625 41.0625 55.515625 
z
" id="BitstreamVeraSans-Roman-72"/>
     <path d="M 45.40625 46.390625 
L 45.40625 75.984375 
L 54.390625 75.984375 
L 54.390625 0 
L 45.40625 0 
L 45.40625 8.203125 
Q 42.578125 3.328125 38.25 0.953125 
Q 33.9375 -1.421875 27.875 -1.421875 
Q 17.96875 -1.421875 11.734375 6.484375 
Q 5.515625 14.40625 5.515625 27.296875 
Q 5.515625 40.1875 11.734375 48.09375 
Q 17.96875 56 27.875 56 
Q 33.9375 56 38.25 53.625 
Q 42.578125 51.265625 45.40625 46.390625 
M 14.796875 27.296875 
Q 14.796875 17.390625 18.875 11.75 
Q 22.953125 6.109375 30.078125 6.109375 
Q 37.203125 6.109375 41.296875 11.75 
Q 45.40625 17.390625 45.40625 27.296875 
Q 45.40625 37.203125 41.296875 42.84375 
Q 37.203125 48.484375 30.078125 48.484375 
Q 22.953125 48.484375 18.875 42.84375 
Q 14.796875 37.203125 14.796875 27.296875 
" id="BitstreamVeraSans-Roman-64"/>
     <path d="M 8.5 21.578125 
L 8.5 54.6875 
L 17.484375 54.6875 
L 17.484375 21.921875 
Q 17.484375 14.15625 20.5 10.265625 
Q 23.53125 6.390625 29.59375 6.390625 
Q 36.859375 6.390625 41.078125 11.03125 
Q 45.3125 15.671875 45.3125 23.6875 
L 45.3125 54.6875 
L 54.296875 54.6875 
L 54.296875 0 
L 45.3125 0 
L 45.3125 8.40625 
Q 42.046875 3.421875 37.71875 1 
Q 33.40625 -1.421875 27.6875 -1.421875 
Q 18.265625 -1.421875 13.375 4.4375 
Q 8.5 10.296875 8.5 21.578125 
" id="BitstreamVeraSans-Roman-75"/>
     <path d="M 6.5 -25 
Q 5.609375 -25 5.609375 -24.125 
Q 5.609375 -23.6875 5.8125 -23.484375 
Q 22.90625 -6.78125 22.90625 25 
Q 22.90625 56.78125 6 73.296875 
Q 5.609375 73.53125 5.609375 74.125 
Q 5.609375 74.46875 5.875 74.734375 
Q 6.15625 75 6.5 75 
L 7.421875 75 
Q 7.71875 75 7.90625 74.8125 
Q 15.09375 69.140625 19.875 61.03125 
Q 24.65625 52.9375 26.875 43.75 
Q 29.109375 34.578125 29.109375 25 
Q 29.109375 17.921875 27.90625 11.0625 
Q 26.703125 4.203125 24.09375 -2.453125 
Q 21.484375 -9.125 17.484375 -14.765625 
Q 13.484375 -20.40625 7.90625 -24.8125 
Q 7.71875 -25 7.421875 -25 
z
" id="Cmr10-29"/>
     <path d="M 54.890625 33.015625 
L 54.890625 0 
L 45.90625 0 
L 45.90625 32.71875 
Q 45.90625 40.484375 42.875 44.328125 
Q 39.84375 48.1875 33.796875 48.1875 
Q 26.515625 48.1875 22.3125 43.546875 
Q 18.109375 38.921875 18.109375 30.90625 
L 18.109375 0 
L 9.078125 0 
L 9.078125 75.984375 
L 18.109375 75.984375 
L 18.109375 46.1875 
Q 21.34375 51.125 25.703125 53.5625 
Q 30.078125 56 35.796875 56 
Q 45.21875 56 50.046875 50.171875 
Q 54.890625 44.34375 54.890625 33.015625 
" id="BitstreamVeraSans-Roman-68"/>
     <path id="BitstreamVeraSans-Roman-20"/>
     <path d="M 59.515625 10.40625 
L 59.515625 29.984375 
L 43.40625 29.984375 
L 43.40625 38.09375 
L 69.28125 38.09375 
L 69.28125 6.78125 
Q 63.578125 2.734375 56.6875 0.65625 
Q 49.8125 -1.421875 42 -1.421875 
Q 24.90625 -1.421875 15.25 8.5625 
Q 5.609375 18.5625 5.609375 36.375 
Q 5.609375 54.25 15.25 64.234375 
Q 24.90625 74.21875 42 74.21875 
Q 49.125 74.21875 55.546875 72.453125 
Q 61.96875 70.703125 67.390625 67.28125 
L 67.390625 56.78125 
Q 61.921875 61.421875 55.765625 63.765625 
Q 49.609375 66.109375 42.828125 66.109375 
Q 29.4375 66.109375 22.71875 58.640625 
Q 16.015625 51.171875 16.015625 36.375 
Q 16.015625 21.625 22.71875 14.15625 
Q 29.4375 6.6875 42.828125 6.6875 
Q 48.046875 6.6875 52.140625 7.59375 
Q 56.25 8.5 59.515625 10.40625 
" id="BitstreamVeraSans-Roman-47"/>
     <path d="M 44.28125 53.078125 
L 44.28125 44.578125 
Q 40.484375 46.53125 36.375 47.5 
Q 32.28125 48.484375 27.875 48.484375 
Q 21.1875 48.484375 17.84375 46.4375 
Q 14.5 44.390625 14.5 40.28125 
Q 14.5 37.15625 16.890625 35.375 
Q 19.28125 33.59375 26.515625 31.984375 
L 29.59375 31.296875 
Q 39.15625 29.25 43.1875 25.515625 
Q 47.21875 21.78125 47.21875 15.09375 
Q 47.21875 7.46875 41.1875 3.015625 
Q 35.15625 -1.421875 24.609375 -1.421875 
Q 20.21875 -1.421875 15.453125 -0.5625 
Q 10.6875 0.296875 5.421875 2 
L 5.421875 11.28125 
Q 10.40625 8.6875 15.234375 7.390625 
Q 20.0625 6.109375 24.8125 6.109375 
Q 31.15625 6.109375 34.5625 8.28125 
Q 37.984375 10.453125 37.984375 14.40625 
Q 37.984375 18.0625 35.515625 20.015625 
Q 33.0625 21.96875 24.703125 23.78125 
L 21.578125 24.515625 
Q 13.234375 26.265625 9.515625 29.90625 
Q 5.8125 33.546875 5.8125 39.890625 
Q 5.8125 47.609375 11.28125 51.796875 
Q 16.75 56 26.8125 56 
Q 31.78125 56 36.171875 55.265625 
Q 40.578125 54.546875 44.28125 53.078125 
" id="BitstreamVeraSans-Roman-73"/>
    </defs>
    <g transform="translate(499.248 61.24)scale(0.144 -0.144)">
     <use transform="translate(0.0 0.015625)" xlink:href="#BitstreamVeraSans-Roman-47"/>
     <use transform="translate(77.490234375 0.015625)" xlink:href="#BitstreamVeraSans-Roman-72"/>
     <use transform="translate(118.603515625 0.015625)" xlink:href="#BitstreamVeraSans-Roman-61"/>
     <use transform="translate(179.8828125 0.015625)" xlink:href="#BitstreamVeraSans-Roman-70"/>
     <use transform="translate(243.359375 0.015625)" xlink:href="#BitstreamVeraSans-Roman-68"/>
     <use transform="translate(306.73828125 0.015625)" xlink:href="#BitstreamVeraSans-Roman-65"/>
     <use transform="translate(368.26171875 0.015625)" xlink:href="#BitstreamVeraSans-Roman-20"/>
     <use transform="translate(400.048828125 0.015625)" xlink:href="#BitstreamVeraSans-Roman-64"/>
     <use transform="translate(463.525390625 0.015625)" xlink:href="#BitstreamVeraSans-Roman-65"/>
     <use transform="translate(525.048828125 0.015625)" xlink:href="#BitstreamVeraSans-Roman-20"/>
     <use transform="translate(556.8359375 0.015625)" xlink:href="#BitstreamVeraSans-Roman-6c"/>
     <use transform="translate(584.619140625 0.015625)" xlink:href="#BitstreamVeraSans-Roman-61"/>
     <use transform="translate(645.8984375 0.015625)" xlink:href="#BitstreamVeraSans-Roman-20"/>
     <use transform="translate(677.685546875 0.015625)" xlink:href="#BitstreamVeraSans-Roman-73"/>
     <use transform="translate(729.78515625 0.015625)" xlink:href="#BitstreamVeraSans-Roman-75"/>
     <use transform="translate(793.1640625 0.015625)" xlink:href="#BitstreamVeraSans-Roman-69"/>
     <use transform="translate(820.947265625 0.015625)" xlink:href="#BitstreamVeraSans-Roman-74"/>
     <use transform="translate(860.15625 0.015625)" xlink:href="#BitstreamVeraSans-Roman-65"/>
     <use transform="translate(921.6796875 0.015625)" xlink:href="#BitstreamVeraSans-Roman-20"/>
     <use transform="translate(953.466796875 0.015625)" xlink:href="#Cmr10-28"/>
     <use transform="translate(992.28515625 0.015625)" xlink:href="#Cmmi10-70"/>
     <use transform="translate(1042.578125 -16.990624999999994)scale(0.7)" xlink:href="#Cmmi10-6e"/>
     <use transform="translate(1090.9623046875 0.015625)" xlink:href="#Cmr10-29"/>
     <use transform="translate(1134.2448046875 -16.990624999999994)scale(0.7)" xlink:href="#Cmmi10-6e"/>
     <use transform="translate(1176.251640625 -16.990624999999994)scale(0.7)" xlink:href="#STIXGeneral-Regular-2265"/>
     <use transform="translate(1224.2016299438476 -16.990624999999994)scale(0.7)" xlink:href="#Cmr10-30"/>
    </g>
   </g>
  </g>
 </g>
 <defs>
  <clipPath id="p5a6436449b">
   <rect height="529.92" width="892.8" x="144.0" y="66.24"/>
  </clipPath>
 </defs>
</svg>
